<svg width="20" height="20" viewBox="0 0 20 20" fill="none" xmlns="http://www.w3.org/2000/svg">
<path d="M13.3333 6.6665C14.6593 6.6665 15.9311 7.19329 16.8688 8.13097C17.8065 9.06865 18.3333 10.3404 18.3333 11.6665V17.4998H14.9999V11.6665C14.9999 11.2245 14.8243 10.8006 14.5118 10.488C14.1992 10.1754 13.7753 9.99984 13.3333 9.99984C12.8912 9.99984 12.4673 10.1754 12.1547 10.488C11.8422 10.8006 11.6666 11.2245 11.6666 11.6665V17.4998H8.33325V11.6665C8.33325 10.3404 8.86004 9.06865 9.79772 8.13097C10.7354 7.19329 12.0072 6.6665 13.3333 6.6665Z" stroke="white" stroke-width="1.66667" stroke-linecap="round" stroke-linejoin="round"/>
<path d="M5.00008 7.5H1.66675V17.5H5.00008V7.5Z" stroke="white" stroke-width="1.66667" stroke-linecap="round" stroke-linejoin="round"/>
<path d="M3.33341 4.99984C4.25389 4.99984 5.00008 4.25365 5.00008 3.33317C5.00008 2.4127 4.25389 1.6665 3.33341 1.6665C2.41294 1.6665 1.66675 2.4127 1.66675 3.33317C1.66675 4.25365 2.41294 4.99984 3.33341 4.99984Z" stroke="white" stroke-width="1.66667" stroke-linecap="round" stroke-linejoin="round"/>
</svg>
