<svg width="48" height="48" viewBox="0 0 48 48" fill="none" xmlns="http://www.w3.org/2000/svg">
<path d="M6 22H12C13.0609 22 14.0783 22.4214 14.8284 23.1716C15.5786 23.9217 16 24.9391 16 26V32C16 33.0609 15.5786 34.0783 14.8284 34.8284C14.0783 35.5786 13.0609 36 12 36H10C8.93913 36 7.92172 35.5786 7.17157 34.8284C6.42143 34.0783 6 33.0609 6 32V22ZM6 22C6 19.6362 6.46558 17.2956 7.37017 15.1117C8.27475 12.9278 9.60062 10.9435 11.2721 9.27208C12.9435 7.60062 14.9278 6.27475 17.1117 5.37017C19.2956 4.46558 21.6362 4 24 4C26.3638 4 28.7044 4.46558 30.8883 5.37017C33.0722 6.27475 35.0565 7.60062 36.7279 9.27208C38.3994 10.9435 39.7252 12.9278 40.6298 15.1117C41.5344 17.2956 42 19.6362 42 22M42 22V32C42 33.0609 41.5786 34.0783 40.8284 34.8284C40.0783 35.5786 39.0609 36 38 36H36C34.9391 36 33.9217 35.5786 33.1716 34.8284C32.4214 34.0783 32 33.0609 32 32V26C32 24.9391 32.4214 23.9217 33.1716 23.1716C33.9217 22.4214 34.9391 22 36 22H42Z" stroke="#2655F3" stroke-width="4" stroke-linecap="round" stroke-linejoin="round"/>
<path d="M42 32V36C42 38.1217 41.1571 40.1566 39.6569 41.6569C38.1566 43.1571 36.1217 44 34 44H24" stroke="#2655F3" stroke-width="4" stroke-linecap="round" stroke-linejoin="round"/>
</svg>
