<svg width="48" height="48" viewBox="0 0 48 48" fill="none" xmlns="http://www.w3.org/2000/svg">
<path d="M42 22H36C34.9391 22 33.9217 22.4214 33.1716 23.1716C32.4214 23.9217 32 24.9391 32 26V32C32 33.0609 32.4214 34.0783 33.1716 34.8284C33.9217 35.5786 34.9391 36 36 36H38C39.0609 36 40.0783 35.5786 40.8284 34.8284C41.5786 34.0783 42 33.0609 42 32V22ZM42 22C42 19.6362 41.5344 17.2956 40.6298 15.1117C39.7252 12.9278 38.3994 10.9435 36.7279 9.27208C35.0565 7.60062 33.0722 6.27475 30.8883 5.37017C28.7044 4.46558 26.3638 4 24 4C21.6362 4 19.2956 4.46558 17.1117 5.37017C14.9278 6.27475 12.9435 7.60062 11.2721 9.27208C9.60062 10.9435 8.27475 12.9278 7.37017 15.1117C6.46558 17.2956 6 19.6362 6 22M6 22V32C6 33.0609 6.42143 34.0783 7.17157 34.8284C7.92172 35.5786 8.93913 36 10 36H12C13.0609 36 14.0783 35.5786 14.8284 34.8284C15.5786 34.0783 16 33.0609 16 32V26C16 24.9391 15.5786 23.9217 14.8284 23.1716C14.0783 22.4214 13.0609 22 12 22H6Z" stroke="#2655F3" stroke-width="4" stroke-linecap="round" stroke-linejoin="round"/>
<path d="M6 32V36C6 38.1217 6.84286 40.1566 8.34315 41.6569C9.84344 43.1571 11.8783 44 14 44H24" stroke="#2655F3" stroke-width="4" stroke-linecap="round" stroke-linejoin="round"/>
</svg>
