<svg width="65" height="52" viewBox="0 0 65 52" fill="none" xmlns="http://www.w3.org/2000/svg">
<path d="M33.3767 9.59933L32.8857 9.74378C32.3502 9.90131 31.7715 9.75369 31.3768 9.35893L30.9478 8.92986C30.7224 8.7043 30.432 8.55132 30.115 8.51516C26.115 8.05847 22.485 10.1834 18.7272 15.4977C15.7011 20.8578 15.3498 24.7676 17.872 33.3439C18.0235 33.8593 18.4399 34.2551 18.9704 34.3386C19.6482 34.4452 20.3502 34.5192 20.8738 34.6571C21.2495 34.756 21.4875 35.0879 21.5878 35.4633C22.0025 37.0142 22.4375 38.4355 22.6874 39.558C26.4148 40.2666 28.7563 40.4083 31.9887 39.6273C32.7251 39.4492 33.404 40.1344 33.1769 40.8572C33.0522 41.254 32.6821 41.5218 32.2664 41.5162L22.8747 41.39C22.8571 41.5018 22.8293 41.6007 22.7903 41.6856C22.7211 41.8366 22.5719 41.9261 22.4187 41.9903C16.0473 44.6615 4.92116 39.238 7.1732 28.1545C7.27014 27.6775 7.61298 27.2849 8.06722 27.1102C10.0621 26.343 11.4719 25.9414 12.0161 25.4371C12.1392 25.3228 12.1972 25.1558 12.2335 24.9918C15.5232 10.1152 20.864 5.38913 33.2757 4.81445C33.8192 4.85368 33.9698 4.96102 34.174 5.68423C34.38 6.83305 34.4577 7.56781 34.4136 8.3592C34.3805 8.95116 33.9453 9.43203 33.3767 9.59933Z" fill="#2655F3"/>
<path d="M32.0172 39.625V40.1" stroke="white" stroke-width="0.656967" stroke-linecap="round"/>
<path d="M31.7456 39.6934V40.1006" stroke="white" stroke-width="0.656967" stroke-linecap="round"/>
<path d="M31.4745 39.7617V40.101" stroke="white" stroke-width="0.656967" stroke-linecap="round"/>
<path d="M24.9726 36.6005C24.1833 36.6005 23.6772 36.0046 23.6772 35.068C23.6772 34.1519 24.1811 33.5703 24.9726 33.5703C25.5195 33.5703 25.9866 33.9314 26.0987 34.417C26.1089 34.4537 26.1152 34.4885 26.1152 34.511C26.1152 34.5579 26.0885 34.5885 26.0416 34.5885C26.0008 34.5885 25.9723 34.5681 25.958 34.5171C25.8723 34.0559 25.4561 33.7213 24.9726 33.7213C24.2812 33.7213 23.8425 34.2416 23.8425 35.068C23.8425 35.9149 24.2873 36.4495 24.9726 36.4495C25.4726 36.4495 25.8866 36.1557 25.9621 35.6945C25.9743 35.6515 25.9968 35.6292 26.0355 35.6292C26.0824 35.6292 26.111 35.6617 26.111 35.7088C26.111 35.7414 26.105 35.7761 26.0926 35.8148C25.9784 36.2882 25.5399 36.6005 24.9726 36.6005ZM27.1188 36.5903C26.7046 36.5903 26.417 36.3434 26.417 35.9863C26.417 35.6292 26.674 35.4129 27.1677 35.3762L27.8981 35.3251V35.1354C27.8981 34.7681 27.6757 34.5456 27.3003 34.5456C26.9616 34.5456 26.7291 34.6967 26.6434 35.019C26.6312 35.0558 26.6088 35.0741 26.5741 35.0741C26.5313 35.0741 26.5027 35.0456 26.5027 35.0007C26.5027 34.9679 26.5149 34.9191 26.5313 34.8763C26.6271 34.5987 26.9045 34.4029 27.3024 34.4029C27.7696 34.4029 28.0573 34.6802 28.0573 35.1232V36.5067C28.0573 36.5577 28.0245 36.5903 27.9796 36.5903C27.9348 36.5903 27.9042 36.5577 27.9042 36.5067V36.1026H27.9001C27.792 36.3903 27.4737 36.5903 27.1188 36.5903ZM27.1433 36.4515C27.5573 36.4515 27.8981 36.1475 27.8981 35.7699V35.4557L27.1902 35.5067C26.7903 35.5373 26.5761 35.7108 26.5761 35.9781C26.5761 36.2617 26.8127 36.4515 27.1433 36.4515ZM28.61 36.5903C28.5631 36.5903 28.5305 36.5555 28.5305 36.5045V33.6661C28.5305 33.6151 28.5631 33.5805 28.61 33.5805C28.6569 33.5805 28.6897 33.6151 28.6897 33.6661V36.5045C28.6897 36.5555 28.6569 36.5903 28.61 36.5903ZM29.2751 36.5903C29.2281 36.5903 29.1955 36.5555 29.1955 36.5045V33.6661C29.1955 33.6151 29.2281 33.5805 29.2751 33.5805C29.322 33.5805 29.3546 33.6151 29.3546 33.6661V36.5045C29.3546 36.5555 29.322 36.5903 29.2751 36.5903ZM31.8924 36.6005C31.1029 36.6005 30.597 36.0046 30.597 35.068C30.597 34.1519 31.1009 33.5703 31.8924 33.5703C32.4391 33.5703 32.9063 33.9314 33.0185 34.417C33.0287 34.4537 33.0348 34.4885 33.0348 34.511C33.0348 34.5579 33.0083 34.5885 32.9614 34.5885C32.9206 34.5885 32.8919 34.5681 32.8778 34.5171C32.7921 34.0559 32.3759 33.7213 31.8924 33.7213C31.2008 33.7213 30.7622 34.2416 30.7622 35.068C30.7622 35.9149 31.2069 36.4495 31.8924 36.4495C32.3922 36.4495 32.8064 36.1557 32.8817 35.6945C32.8941 35.6515 32.9165 35.6292 32.9553 35.6292C33.0022 35.6292 33.0307 35.6617 33.0307 35.7088C33.0307 35.7414 33.0246 35.7761 33.0124 35.8148C32.8982 36.2882 32.4595 36.6005 31.8924 36.6005ZM34.2507 36.5903C33.6611 36.5903 33.294 36.1883 33.294 35.5067C33.294 34.8333 33.6631 34.4029 34.2242 34.4029C34.7648 34.4029 35.134 34.8129 35.134 35.4129C35.134 35.4823 35.0932 35.523 35.0218 35.523H33.4551C33.4551 36.1086 33.7631 36.4495 34.2446 36.4495C34.5954 36.4495 34.8544 36.278 34.9565 35.9801C34.9687 35.9516 34.9871 35.9332 35.0218 35.9332C35.0626 35.9332 35.0932 35.9618 35.0932 36.0046C35.0932 36.0189 35.0871 36.0435 35.0809 36.0617C34.9789 36.3862 34.6608 36.5903 34.2507 36.5903ZM33.457 35.3905H34.9708C34.9687 34.8865 34.6688 34.5436 34.2242 34.5436C33.7835 34.5436 33.4796 34.8802 33.457 35.3905ZM35.5767 36.5903C35.5298 36.5903 35.497 36.5555 35.497 36.5045V34.4843C35.497 34.4355 35.5277 34.4029 35.5706 34.4029C35.6154 34.4029 35.646 34.4355 35.646 34.4843V34.8967H35.6501C35.7501 34.5987 36.0254 34.4029 36.3906 34.4029C36.8476 34.4029 37.1597 34.7048 37.1597 35.1823V36.5045C37.1597 36.5555 37.127 36.5903 37.0801 36.5903C37.0332 36.5903 37.0006 36.5555 37.0006 36.5045V35.2027C37.0006 34.7925 36.7394 34.5456 36.3539 34.5456C35.9336 34.5456 35.6562 34.8496 35.6562 35.2904V36.5045C35.6562 36.5555 35.6236 36.5903 35.5767 36.5903ZM37.737 36.0923V34.5721H37.4758C37.427 34.5721 37.4005 34.5456 37.4005 34.5048C37.4005 34.46 37.427 34.4355 37.4758 34.4355H37.737V33.9375C37.737 33.8865 37.7676 33.8539 37.8145 33.8539C37.8614 33.8539 37.8941 33.8865 37.8941 33.9375V34.4355H38.2654C38.3123 34.4355 38.3409 34.46 38.3409 34.5048C38.3409 34.5456 38.3123 34.5721 38.2654 34.5721H37.8941V36.07C37.8941 36.3188 37.9819 36.4168 38.1959 36.4209H38.294C38.3449 36.423 38.3715 36.4474 38.3715 36.4882C38.3715 36.5351 38.3429 36.5616 38.2674 36.5616H38.1716C37.8757 36.5616 37.737 36.423 37.737 36.0923ZM39.4731 36.5903C38.8835 36.5903 38.5163 36.1883 38.5163 35.5067C38.5163 34.8333 38.8856 34.4029 39.4466 34.4029C39.9871 34.4029 40.3564 34.8129 40.3564 35.4129C40.3564 35.4823 40.3156 35.523 40.2442 35.523H38.6774C38.6774 36.1086 38.9855 36.4495 39.467 36.4495C39.8178 36.4495 40.0768 36.278 40.1789 35.9801C40.1912 35.9516 40.2095 35.9332 40.2442 35.9332C40.285 35.9332 40.3156 35.9618 40.3156 36.0046C40.3156 36.0189 40.3095 36.0435 40.3034 36.0617C40.2014 36.3862 39.8831 36.5903 39.4731 36.5903ZM38.6796 35.3905H40.1932C40.1912 34.8865 39.8912 34.5436 39.4466 34.5436C39.0059 34.5436 38.702 34.8802 38.6796 35.3905ZM40.7991 36.5903C40.7522 36.5903 40.7196 36.5555 40.7196 36.5045V34.4843C40.7196 34.4355 40.7481 34.4029 40.795 34.4029C40.8399 34.4029 40.8685 34.4355 40.8685 34.4843V34.8537H40.8725C40.9562 34.5681 41.1642 34.4029 41.4254 34.4029C41.4947 34.4029 41.56 34.4129 41.6151 34.4396C41.6457 34.4559 41.6661 34.4763 41.6661 34.511C41.6661 34.5395 41.6518 34.5619 41.6273 34.5701C41.5845 34.5783 41.5376 34.5538 41.4213 34.5538C41.0724 34.5538 40.8787 34.8456 40.8787 35.2374V36.5045C40.8787 36.5555 40.846 36.5903 40.7991 36.5903Z" fill="white"/>
<path d="M25.8963 20.7901C25.013 20.7901 24.4801 20.3855 24.1545 19.4723L22.5803 15.0351C22.5213 14.8624 22.4867 14.6649 22.4867 14.4478C22.4867 13.8407 22.9405 13.4211 23.6067 13.4211C24.1989 13.4211 24.5394 13.6877 24.7021 14.275L25.9358 18.6825H25.9753L27.194 14.2454C27.352 13.6778 27.6776 13.4211 28.245 13.4211C28.8914 13.4211 29.3257 13.8209 29.3257 14.4083C29.3257 14.6057 29.2961 14.7834 29.2319 14.9611L27.6382 19.4723C27.3174 20.3806 26.7746 20.7901 25.8963 20.7901ZM31.9853 20.8049C30.209 20.8049 29.1234 19.7783 29.1234 17.9374C29.1234 16.1457 30.2385 15.0795 31.9853 15.0795C33.7419 15.0795 34.8522 16.1358 34.8522 17.9374C34.8522 19.7832 33.7666 20.8049 31.9853 20.8049ZM31.9853 19.3589C32.4886 19.3589 32.7995 18.8554 32.7995 17.9423C32.7995 17.0538 32.4837 16.5258 31.9853 16.5258C31.4919 16.5258 31.1761 17.0538 31.1761 17.9423C31.1761 18.8554 31.4771 19.3589 31.9853 19.3589ZM36.4903 14.7686C35.918 14.7686 35.4837 14.354 35.4837 13.8111C35.4837 13.2681 35.918 12.8535 36.4903 12.8535C37.0628 12.8535 37.4971 13.2681 37.4971 13.8111C37.4971 14.354 37.0628 14.7686 36.4903 14.7686ZM36.4903 20.7901C35.8489 20.7901 35.4788 20.4102 35.4788 19.7437V16.1407C35.4788 15.4744 35.8489 15.0943 36.4903 15.0943C37.1319 15.0943 37.502 15.4793 37.502 16.1457V19.7437C37.502 20.4102 37.1319 20.7901 36.4903 20.7901ZM40.966 20.8049C39.1994 20.8049 38.1237 19.7339 38.1237 17.9374C38.1237 16.1605 39.2044 15.0795 40.9561 15.0795C42.1106 15.0795 43.0334 15.5583 43.4085 16.353C43.4922 16.5307 43.5416 16.7231 43.5416 16.8811C43.5416 17.3598 43.1271 17.6312 42.6732 17.6312C42.2883 17.6312 42.0464 17.4783 41.8639 17.1773C41.6173 16.7626 41.3655 16.585 41.0349 16.585C40.4675 16.585 40.1715 17.0439 40.1715 17.9374C40.1715 18.8356 40.4576 19.2996 41.0201 19.2996C41.4099 19.2996 41.6518 19.0774 41.8343 18.8159C42.0909 18.4506 42.3179 18.273 42.7422 18.273C43.1863 18.273 43.5811 18.5593 43.5811 19.0527C43.5811 19.2108 43.5416 19.3785 43.4332 19.5859C43.0483 20.3115 42.0563 20.8049 40.966 20.8049ZM46.9216 20.8049C45.1355 20.8049 44.0746 19.7437 44.0746 17.972C44.0746 16.1901 45.1454 15.0795 46.8576 15.0795C48.5451 15.0795 49.6356 16.1555 49.6356 17.6215C49.6356 18.1051 49.3592 18.3716 48.856 18.3716H46.0236V18.5C46.0236 19.033 46.4085 19.418 46.9512 19.418C47.3904 19.418 47.7062 19.2848 48.0911 18.9443C48.3034 18.7566 48.4612 18.6924 48.7079 18.6924C49.0977 18.6924 49.448 18.9443 49.448 19.3785C49.448 19.5316 49.4036 19.6797 49.3149 19.8227C48.9498 20.4298 48.0319 20.8049 46.9216 20.8049ZM46.0532 17.276H47.7506C47.7161 16.7873 47.3756 16.4714 46.902 16.4714C46.4431 16.4714 46.0927 16.8071 46.0532 17.276ZM26.1479 30.8309C23.8881 30.8309 22.5606 29.4933 22.5606 27.1439C22.5606 24.7946 23.9177 23.4619 26.0689 23.4619C27.4308 23.4619 28.4376 23.9801 29 24.9722C29.1432 25.2191 29.2171 25.4806 29.2171 25.7323C29.2171 26.2654 28.8569 26.6109 28.3092 26.6109C27.8552 26.6109 27.5789 26.4332 27.352 25.9939C27.0362 25.3868 26.6414 25.1055 26.0936 25.1055C25.2351 25.1055 24.6923 25.8656 24.6923 27.139C24.6923 28.4272 25.2302 29.1873 26.0986 29.1873C26.671 29.1873 27.0708 28.8961 27.3717 28.2644C27.5838 27.8152 27.8355 27.6425 28.2747 27.6425C28.8717 27.6425 29.2615 28.0078 29.2615 28.5654C29.2615 28.743 29.222 28.9307 29.1481 29.1132C28.7336 30.1448 27.5345 30.8309 26.1479 30.8309ZM32.8143 30.8457C31.0379 30.8457 29.9523 29.819 29.9523 27.9781C29.9523 26.1864 31.0675 25.1203 32.8143 25.1203C34.5709 25.1203 35.6812 26.1766 35.6812 27.9781C35.6812 29.824 34.5956 30.8457 32.8143 30.8457ZM32.8143 29.3996C33.3177 29.3996 33.6285 28.8961 33.6285 27.9831C33.6285 27.0945 33.3127 26.5665 32.8143 26.5665C32.3208 26.5665 32.005 27.0945 32.005 27.9831C32.005 28.8961 32.306 29.3996 32.8143 29.3996ZM37.3194 30.8309C36.7273 30.8309 36.3078 30.5002 36.3078 29.7845V26.1519C36.3078 25.5053 36.6582 25.1351 37.2897 25.1351C37.9213 25.1351 38.3309 25.5053 38.3309 26.1568V26.2801H38.3704C38.6467 25.5152 39.1649 25.1499 39.9937 25.1499C41.2176 25.1499 41.8886 25.9101 41.8886 27.218V29.7845C41.8886 30.5002 41.4692 30.8309 40.8771 30.8309C40.285 30.8309 39.8656 30.5002 39.8656 29.7845V27.6672C39.8656 27.1192 39.609 26.7836 39.1007 26.7836C38.622 26.7836 38.3309 27.1538 38.3309 27.6623V29.7845C38.3309 30.5002 37.9114 30.8309 37.3194 30.8309ZM43.6354 30.8309C43.0433 30.8309 42.6239 30.5002 42.6239 29.7845V26.1519C42.6239 25.5053 42.9742 25.1351 43.6058 25.1351C44.2373 25.1351 44.6469 25.5053 44.6469 26.1568V26.2801H44.6864C44.9627 25.5152 45.4809 25.1499 46.3098 25.1499C47.5336 25.1499 48.2046 25.9101 48.2046 27.218V29.7845C48.2046 30.5002 47.7852 30.8309 47.1931 30.8309C46.6009 30.8309 46.1816 30.5002 46.1816 29.7845V27.6672C46.1816 27.1192 45.9249 26.7836 45.4167 26.7836C44.938 26.7836 44.6469 27.1538 44.6469 27.6623V29.7845C44.6469 30.5002 44.2275 30.8309 43.6354 30.8309ZM51.6488 30.8457C49.8626 30.8457 48.8017 29.7845 48.8017 28.0127C48.8017 26.2309 49.8724 25.1203 51.5846 25.1203C53.2722 25.1203 54.3627 26.1963 54.3627 27.6623C54.3627 28.1459 54.0864 28.4124 53.583 28.4124H50.7507V28.5407C50.7507 29.0737 51.1356 29.4587 51.6784 29.4587C52.1176 29.4587 52.4334 29.3256 52.8183 28.985C53.0304 28.7974 53.1883 28.7332 53.4351 28.7332C53.8249 28.7332 54.1753 28.985 54.1753 29.4192C54.1753 29.5723 54.1308 29.7205 54.042 29.8635C53.6768 30.4705 52.7591 30.8457 51.6488 30.8457ZM50.7803 27.3168H52.4779C52.4433 26.8281 52.1028 26.5122 51.6291 26.5122C51.1701 26.5122 50.8198 26.8478 50.7803 27.3168ZM57.6836 30.8457C55.9171 30.8457 54.8414 29.7746 54.8414 27.9781C54.8414 26.2013 55.922 25.1203 57.6737 25.1203C58.8283 25.1203 59.7511 25.599 60.1261 26.3937C60.2099 26.5714 60.2593 26.7639 60.2593 26.9219C60.2593 27.4005 59.8447 27.672 59.3909 27.672C59.006 27.672 58.7641 27.5191 58.5816 27.218C58.3349 26.8034 58.0832 26.6258 57.7526 26.6258C57.1852 26.6258 56.8891 27.0847 56.8891 27.9781C56.8891 28.8764 57.1753 29.3404 57.7378 29.3404C58.1276 29.3404 58.3695 29.1182 58.552 28.8566C58.8085 28.4914 59.0356 28.3138 59.4599 28.3138C59.904 28.3138 60.2988 28.6 60.2988 29.0935C60.2988 29.2515 60.2593 29.4192 60.1507 29.6266C59.7659 30.3522 58.774 30.8457 57.6836 30.8457ZM61.4189 29.1873V26.7293H61.2955C60.8612 26.7293 60.5701 26.4381 60.5701 25.9939C60.5701 25.5498 60.8612 25.2584 61.2955 25.2584H61.4189V24.9672C61.4189 24.3059 61.7841 23.9209 62.4304 23.9209C63.0768 23.9209 63.442 24.3059 63.442 24.9672V25.2584H63.7972C64.2315 25.2584 64.5226 25.5547 64.5226 25.9939C64.5226 26.4332 64.2315 26.7293 63.7972 26.7293H63.442V28.7381C63.442 29.0492 63.5456 29.1577 63.738 29.1824L63.8565 29.1972C64.2809 29.2515 64.5374 29.439 64.5374 29.9079C64.5374 30.4903 63.8565 30.7866 63.1212 30.7866H63.0768C61.9814 30.7866 61.4189 30.2386 61.4189 29.1873Z" fill="#2655F3"/>
</svg>
