<svg width="65" height="52" viewBox="0 0 65 52" fill="none" xmlns="http://www.w3.org/2000/svg">
<path d="M33.3768 9.59877L32.8857 9.74323C32.3503 9.90075 31.7715 9.75313 31.3769 9.35837L30.9479 8.9293C30.7225 8.70374 30.432 8.55076 30.1151 8.5146C26.115 8.05791 22.4851 10.1829 18.7272 15.4972C15.7012 20.8573 15.3498 24.7671 17.872 33.3433C18.0236 33.8587 18.4399 34.2546 18.9705 34.338C19.6483 34.4447 20.3503 34.5186 20.8739 34.6565C21.2496 34.7555 21.4875 35.0873 21.5879 35.4628C22.0026 37.0136 22.4375 38.435 22.6875 39.5574C26.4149 40.266 28.7563 40.4077 31.9887 39.6267C32.7251 39.4486 33.4041 40.1338 33.177 40.8566C33.0523 41.2535 32.6822 41.5213 32.2665 41.5157L22.8747 41.3894C22.8571 41.5012 22.8293 41.6001 22.7903 41.6851C22.7212 41.836 22.572 41.9255 22.4188 41.9897C16.0474 44.6609 4.92122 39.2374 7.17326 28.1539C7.2702 27.6769 7.61304 27.2843 8.06728 27.1097C10.0622 26.3425 11.472 25.9408 12.0162 25.4365C12.1393 25.3223 12.1973 25.1552 12.2335 24.9912C15.5233 10.1146 20.864 5.38857 33.2757 4.81389C33.8193 4.85312 33.9698 4.96046 34.174 5.68367C34.3801 6.8325 34.4577 7.56725 34.4136 8.35864C34.3806 8.9506 33.9453 9.43147 33.3768 9.59877Z" fill="#2655F3"/>
<path d="M32.0172 39.6251V40.1001" stroke="white" stroke-width="0.656967" stroke-linecap="round"/>
<path d="M31.7456 39.6932V40.1004" stroke="white" stroke-width="0.656967" stroke-linecap="round"/>
<path d="M31.4745 39.7612V40.1004" stroke="white" stroke-width="0.656967" stroke-linecap="round"/>
<path d="M24.9726 36.6003C24.1833 36.6003 23.6772 36.0045 23.6772 35.0679C23.6772 34.1517 24.1811 33.5702 24.9726 33.5702C25.5195 33.5702 25.9866 33.9313 26.0987 34.4169C26.1089 34.4536 26.1152 34.4883 26.1152 34.5109C26.1152 34.5578 26.0885 34.5884 26.0416 34.5884C26.0008 34.5884 25.9723 34.568 25.958 34.517C25.8723 34.0557 25.4561 33.7211 24.9726 33.7211C24.2812 33.7211 23.8425 34.2414 23.8425 35.0679C23.8425 35.9148 24.2873 36.4494 24.9726 36.4494C25.4726 36.4494 25.8866 36.1556 25.9621 35.6944C25.9743 35.6514 25.9968 35.629 26.0355 35.629C26.0824 35.629 26.111 35.6616 26.111 35.7087C26.111 35.7413 26.105 35.776 26.0926 35.8147C25.9784 36.2881 25.5399 36.6003 24.9726 36.6003ZM27.1188 36.5901C26.7046 36.5901 26.417 36.3432 26.417 35.9862C26.417 35.629 26.674 35.4127 27.1677 35.376L27.8981 35.325V35.1352C27.8981 34.768 27.6757 34.5454 27.3003 34.5454C26.9616 34.5454 26.7291 34.6965 26.6434 35.0188C26.6312 35.0557 26.6088 35.074 26.5741 35.074C26.5313 35.074 26.5027 35.0455 26.5027 35.0006C26.5027 34.9678 26.5149 34.9189 26.5313 34.8761C26.6271 34.5986 26.9045 34.4027 27.3024 34.4027C27.7696 34.4027 28.0573 34.6801 28.0573 35.123V36.5065C28.0573 36.5575 28.0245 36.5901 27.9796 36.5901C27.9348 36.5901 27.9042 36.5575 27.9042 36.5065V36.1024H27.9001C27.792 36.3901 27.4737 36.5901 27.1188 36.5901ZM27.1433 36.4514C27.5573 36.4514 27.8981 36.1473 27.8981 35.7697V35.4555L27.1902 35.5065C26.7903 35.5372 26.5761 35.7106 26.5761 35.978C26.5761 36.2616 26.8127 36.4514 27.1433 36.4514ZM28.61 36.5901C28.5631 36.5901 28.5305 36.5554 28.5305 36.5044V33.666C28.5305 33.6149 28.5631 33.5804 28.61 33.5804C28.6569 33.5804 28.6897 33.6149 28.6897 33.666V36.5044C28.6897 36.5554 28.6569 36.5901 28.61 36.5901ZM29.2751 36.5901C29.2281 36.5901 29.1955 36.5554 29.1955 36.5044V33.666C29.1955 33.6149 29.2281 33.5804 29.2751 33.5804C29.322 33.5804 29.3546 33.6149 29.3546 33.666V36.5044C29.3546 36.5554 29.322 36.5901 29.2751 36.5901ZM31.8924 36.6003C31.1029 36.6003 30.597 36.0045 30.597 35.0679C30.597 34.1517 31.1009 33.5702 31.8924 33.5702C32.4391 33.5702 32.9063 33.9313 33.0185 34.4169C33.0287 34.4536 33.0348 34.4883 33.0348 34.5109C33.0348 34.5578 33.0083 34.5884 32.9614 34.5884C32.9206 34.5884 32.8919 34.568 32.8778 34.517C32.7921 34.0557 32.3759 33.7211 31.8924 33.7211C31.2008 33.7211 30.7622 34.2414 30.7622 35.0679C30.7622 35.9148 31.2069 36.4494 31.8924 36.4494C32.3922 36.4494 32.8064 36.1556 32.8817 35.6944C32.8941 35.6514 32.9165 35.629 32.9553 35.629C33.0022 35.629 33.0307 35.6616 33.0307 35.7087C33.0307 35.7413 33.0246 35.776 33.0124 35.8147C32.8982 36.2881 32.4595 36.6003 31.8924 36.6003ZM34.2507 36.5901C33.6611 36.5901 33.294 36.1882 33.294 35.5065C33.294 34.8332 33.6631 34.4027 34.2242 34.4027C34.7648 34.4027 35.134 34.8127 35.134 35.4127C35.134 35.4822 35.0932 35.5228 35.0218 35.5228H33.4551C33.4551 36.1085 33.7631 36.4494 34.2446 36.4494C34.5954 36.4494 34.8544 36.2779 34.9565 35.9799C34.9687 35.9515 34.9871 35.933 35.0218 35.933C35.0626 35.933 35.0932 35.9617 35.0932 36.0045C35.0932 36.0188 35.0871 36.0433 35.0809 36.0616C34.9789 36.386 34.6608 36.5901 34.2507 36.5901ZM33.457 35.3903H34.9708C34.9687 34.8863 34.6688 34.5435 34.2242 34.5435C33.7835 34.5435 33.4796 34.8801 33.457 35.3903ZM35.5767 36.5901C35.5298 36.5901 35.497 36.5554 35.497 36.5044V34.4842C35.497 34.4353 35.5277 34.4027 35.5706 34.4027C35.6154 34.4027 35.646 34.4353 35.646 34.4842V34.8965H35.6501C35.7501 34.5986 36.0254 34.4027 36.3906 34.4027C36.8476 34.4027 37.1597 34.7046 37.1597 35.1821V36.5044C37.1597 36.5554 37.127 36.5901 37.0801 36.5901C37.0332 36.5901 37.0006 36.5554 37.0006 36.5044V35.2025C37.0006 34.7923 36.7394 34.5454 36.3539 34.5454C35.9336 34.5454 35.6562 34.8494 35.6562 35.2903V36.5044C35.6562 36.5554 35.6236 36.5901 35.5767 36.5901ZM37.737 36.0922V34.5719H37.4758C37.427 34.5719 37.4005 34.5454 37.4005 34.5046C37.4005 34.4598 37.427 34.4353 37.4758 34.4353H37.737V33.9374C37.737 33.8864 37.7676 33.8538 37.8145 33.8538C37.8614 33.8538 37.8941 33.8864 37.8941 33.9374V34.4353H38.2654C38.3123 34.4353 38.3409 34.4598 38.3409 34.5046C38.3409 34.5454 38.3123 34.5719 38.2654 34.5719H37.8941V36.0698C37.8941 36.3187 37.9819 36.4166 38.1959 36.4207H38.294C38.3449 36.4229 38.3715 36.4472 38.3715 36.4881C38.3715 36.535 38.3429 36.5615 38.2674 36.5615H38.1716C37.8757 36.5615 37.737 36.4229 37.737 36.0922ZM39.4731 36.5901C38.8835 36.5901 38.5163 36.1882 38.5163 35.5065C38.5163 34.8332 38.8856 34.4027 39.4466 34.4027C39.9871 34.4027 40.3564 34.8127 40.3564 35.4127C40.3564 35.4822 40.3156 35.5228 40.2442 35.5228H38.6774C38.6774 36.1085 38.9855 36.4494 39.467 36.4494C39.8178 36.4494 40.0768 36.2779 40.1789 35.9799C40.1912 35.9515 40.2095 35.933 40.2442 35.933C40.285 35.933 40.3156 35.9617 40.3156 36.0045C40.3156 36.0188 40.3095 36.0433 40.3034 36.0616C40.2014 36.386 39.8831 36.5901 39.4731 36.5901ZM38.6796 35.3903H40.1932C40.1912 34.8863 39.8912 34.5435 39.4466 34.5435C39.0059 34.5435 38.702 34.8801 38.6796 35.3903ZM40.7991 36.5901C40.7522 36.5901 40.7196 36.5554 40.7196 36.5044V34.4842C40.7196 34.4353 40.7481 34.4027 40.795 34.4027C40.8399 34.4027 40.8685 34.4353 40.8685 34.4842V34.8536H40.8725C40.9562 34.568 41.1642 34.4027 41.4254 34.4027C41.4947 34.4027 41.56 34.4128 41.6151 34.4394C41.6457 34.4557 41.6661 34.4761 41.6661 34.5109C41.6661 34.5393 41.6518 34.5617 41.6273 34.57C41.5845 34.5782 41.5376 34.5537 41.4213 34.5537C41.0724 34.5537 40.8787 34.8455 40.8787 35.2373V36.5044C40.8787 36.5554 40.846 36.5901 40.7991 36.5901Z" fill="black"/>
<path d="M25.8963 20.7893C25.013 20.7893 24.4801 20.3847 24.1545 19.4715L22.5803 15.0343C22.5213 14.8615 22.4867 14.6641 22.4867 14.4469C22.4867 13.8398 22.9405 13.4203 23.6067 13.4203C24.1989 13.4203 24.5394 13.6868 24.7021 14.2742L25.9358 18.6817H25.9753L27.194 14.2446C27.352 13.677 27.6776 13.4203 28.245 13.4203C28.8914 13.4203 29.3257 13.8201 29.3257 14.4074C29.3257 14.6049 29.2961 14.7826 29.2319 14.9602L27.6382 19.4715C27.3174 20.3797 26.7746 20.7893 25.8963 20.7893ZM31.9853 20.8041C30.209 20.8041 29.1234 19.7775 29.1234 17.9366C29.1234 16.1448 30.2385 15.0787 31.9853 15.0787C33.7419 15.0787 34.8522 16.1349 34.8522 17.9366C34.8522 19.7824 33.7666 20.8041 31.9853 20.8041ZM31.9853 19.3581C32.4886 19.3581 32.7995 18.8545 32.7995 17.9415C32.7995 17.053 32.4837 16.5249 31.9853 16.5249C31.4919 16.5249 31.1761 17.053 31.1761 17.9415C31.1761 18.8545 31.4771 19.3581 31.9853 19.3581ZM36.4903 14.7677C35.918 14.7677 35.4837 14.3531 35.4837 13.8102C35.4837 13.2673 35.918 12.8527 36.4903 12.8527C37.0628 12.8527 37.4971 13.2673 37.4971 13.8102C37.4971 14.3531 37.0628 14.7677 36.4903 14.7677ZM36.4903 20.7893C35.8489 20.7893 35.4788 20.4094 35.4788 19.7429V16.1399C35.4788 15.4736 35.8489 15.0935 36.4903 15.0935C37.1319 15.0935 37.502 15.4785 37.502 16.1448V19.7429C37.502 20.4094 37.1319 20.7893 36.4903 20.7893ZM40.966 20.8041C39.1994 20.8041 38.1237 19.733 38.1237 17.9366C38.1237 16.1596 39.2044 15.0787 40.9561 15.0787C42.1106 15.0787 43.0334 15.5575 43.4085 16.3521C43.4922 16.5299 43.5416 16.7223 43.5416 16.8803C43.5416 17.359 43.1271 17.6304 42.6732 17.6304C42.2883 17.6304 42.0464 17.4775 41.8639 17.1764C41.6173 16.7618 41.3655 16.5842 41.0349 16.5842C40.4675 16.5842 40.1715 17.0431 40.1715 17.9366C40.1715 18.8348 40.4576 19.2988 41.0201 19.2988C41.4099 19.2988 41.6518 19.0766 41.8343 18.815C42.0909 18.4498 42.3179 18.2722 42.7422 18.2722C43.1863 18.2722 43.5811 18.5584 43.5811 19.0519C43.5811 19.2099 43.5416 19.3776 43.4332 19.585C43.0483 20.3106 42.0563 20.8041 40.966 20.8041ZM46.9216 20.8041C45.1355 20.8041 44.0746 19.7429 44.0746 17.9711C44.0746 16.1892 45.1454 15.0787 46.8576 15.0787C48.5451 15.0787 49.6356 16.1547 49.6356 17.6207C49.6356 18.1043 49.3592 18.3708 48.856 18.3708H46.0236V18.4992C46.0236 19.0321 46.4085 19.4171 46.9512 19.4171C47.3904 19.4171 47.7062 19.284 48.0911 18.9434C48.3034 18.7558 48.4612 18.6916 48.7079 18.6916C49.0977 18.6916 49.448 18.9434 49.448 19.3776C49.448 19.5307 49.4036 19.6789 49.3149 19.8219C48.9498 20.429 48.0319 20.8041 46.9216 20.8041ZM46.0532 17.2752H47.7506C47.7161 16.7865 47.3756 16.4706 46.902 16.4706C46.4431 16.4706 46.0927 16.8062 46.0532 17.2752ZM26.1479 30.83C23.8881 30.83 22.5606 29.4925 22.5606 27.1431C22.5606 24.7937 23.9177 23.4611 26.0689 23.4611C27.4308 23.4611 28.4376 23.9793 29 24.9713C29.1432 25.2182 29.2171 25.4798 29.2171 25.7315C29.2171 26.2646 28.8569 26.6101 28.3092 26.6101C27.8552 26.6101 27.5789 26.4323 27.352 25.993C27.0362 25.386 26.6414 25.1047 26.0936 25.1047C25.2351 25.1047 24.6923 25.8648 24.6923 27.1382C24.6923 28.4263 25.2302 29.1865 26.0986 29.1865C26.671 29.1865 27.0708 28.8953 27.3717 28.2635C27.5838 27.8143 27.8355 27.6417 28.2747 27.6417C28.8717 27.6417 29.2615 28.0069 29.2615 28.5646C29.2615 28.7422 29.222 28.9298 29.1481 29.1124C28.7336 30.144 27.5345 30.83 26.1479 30.83ZM32.8143 30.8448C31.0379 30.8448 29.9523 29.8182 29.9523 27.9773C29.9523 26.1856 31.0675 25.1195 32.8143 25.1195C34.5709 25.1195 35.6812 26.1757 35.6812 27.9773C35.6812 29.8231 34.5956 30.8448 32.8143 30.8448ZM32.8143 29.3988C33.3177 29.3988 33.6285 28.8953 33.6285 27.9822C33.6285 27.0937 33.3127 26.5657 32.8143 26.5657C32.3208 26.5657 32.005 27.0937 32.005 27.9822C32.005 28.8953 32.306 29.3988 32.8143 29.3988ZM37.3194 30.83C36.7273 30.83 36.3078 30.4993 36.3078 29.7836V26.151C36.3078 25.5045 36.6582 25.1343 37.2897 25.1343C37.9213 25.1343 38.3309 25.5045 38.3309 26.156V26.2793H38.3704C38.6467 25.5144 39.1649 25.1491 39.9937 25.1491C41.2176 25.1491 41.8886 25.9092 41.8886 27.2172V29.7836C41.8886 30.4993 41.4692 30.83 40.8771 30.83C40.285 30.83 39.8656 30.4993 39.8656 29.7836V27.6664C39.8656 27.1184 39.609 26.7828 39.1007 26.7828C38.622 26.7828 38.3309 27.153 38.3309 27.6614V29.7836C38.3309 30.4993 37.9114 30.83 37.3194 30.83ZM43.6354 30.83C43.0433 30.83 42.6239 30.4993 42.6239 29.7836V26.151C42.6239 25.5045 42.9742 25.1343 43.6058 25.1343C44.2373 25.1343 44.6469 25.5045 44.6469 26.156V26.2793H44.6864C44.9627 25.5144 45.4809 25.1491 46.3098 25.1491C47.5336 25.1491 48.2046 25.9092 48.2046 27.2172V29.7836C48.2046 30.4993 47.7852 30.83 47.1931 30.83C46.6009 30.83 46.1816 30.4993 46.1816 29.7836V27.6664C46.1816 27.1184 45.9249 26.7828 45.4167 26.7828C44.938 26.7828 44.6469 27.153 44.6469 27.6614V29.7836C44.6469 30.4993 44.2275 30.83 43.6354 30.83ZM51.6488 30.8448C49.8626 30.8448 48.8017 29.7836 48.8017 28.0119C48.8017 26.23 49.8724 25.1195 51.5846 25.1195C53.2722 25.1195 54.3627 26.1955 54.3627 27.6614C54.3627 28.145 54.0864 28.4115 53.583 28.4115H50.7507V28.5399C50.7507 29.0729 51.1356 29.4579 51.6784 29.4579C52.1176 29.4579 52.4334 29.3247 52.8183 28.9842C53.0304 28.7965 53.1883 28.7323 53.4351 28.7323C53.8249 28.7323 54.1753 28.9842 54.1753 29.4184C54.1753 29.5715 54.1308 29.7196 54.042 29.8627C53.6768 30.4697 52.7591 30.8448 51.6488 30.8448ZM50.7803 27.3159H52.4779C52.4433 26.8272 52.1028 26.5113 51.6291 26.5113C51.1701 26.5113 50.8198 26.847 50.7803 27.3159ZM57.6836 30.8448C55.9171 30.8448 54.8414 29.7738 54.8414 27.9773C54.8414 26.2004 55.922 25.1195 57.6737 25.1195C58.8283 25.1195 59.7511 25.5981 60.1261 26.3928C60.2099 26.5706 60.2593 26.763 60.2593 26.921C60.2593 27.3997 59.8447 27.6711 59.3909 27.6711C59.006 27.6711 58.7641 27.5182 58.5816 27.2172C58.3349 26.8025 58.0832 26.6249 57.7526 26.6249C57.1852 26.6249 56.8891 27.0838 56.8891 27.9773C56.8891 28.8755 57.1753 29.3395 57.7378 29.3395C58.1276 29.3395 58.3695 29.1173 58.552 28.8558C58.8085 28.4905 59.0356 28.3129 59.4599 28.3129C59.904 28.3129 60.2988 28.5992 60.2988 29.0926C60.2988 29.2507 60.2593 29.4184 60.1507 29.6258C59.7659 30.3514 58.774 30.8448 57.6836 30.8448ZM61.4189 29.1865V26.7285H61.2955C60.8612 26.7285 60.5701 26.4373 60.5701 25.993C60.5701 25.5489 60.8612 25.2576 61.2955 25.2576H61.4189V24.9664C61.4189 24.305 61.7841 23.92 62.4304 23.92C63.0768 23.92 63.442 24.305 63.442 24.9664V25.2576H63.7972C64.2315 25.2576 64.5226 25.5539 64.5226 25.993C64.5226 26.4323 64.2315 26.7285 63.7972 26.7285H63.442V28.7373C63.442 29.0484 63.5456 29.1568 63.738 29.1815L63.8565 29.1963C64.2809 29.2507 64.5374 29.4381 64.5374 29.9071C64.5374 30.4895 63.8565 30.7857 63.1212 30.7857H63.0768C61.9814 30.7857 61.4189 30.2378 61.4189 29.1865Z" fill="#2655F3"/>
</svg>
