<svg width="40" height="38" viewBox="0 0 40 38" fill="none" xmlns="http://www.w3.org/2000/svg">
<path d="M39.65 0.0999926V6.24999C37.75 6.64999 36.15 7.59999 34.85 9.09999C33.65 10.6 32.75 12.5 32.15 14.8C31.65 17 31.4 19.45 31.4 22.15H38.3V37.75H23.6V23.8C23.6 18 24.4 13.5 26 10.3C27.7 7 29.8 4.6 32.3 3.1C34.8 1.5 37.25 0.499993 39.65 0.0999926ZM16.4 0.0999926V6.24999C14.5 6.64999 12.9 7.59999 11.6 9.09999C10.4 10.6 9.5 12.5 8.9 14.8C8.4 17 8.15 19.45 8.15 22.15H14.9V37.75H0.200001V23.8C0.200001 18 1.05 13.5 2.75 10.3C4.45 7 6.55 4.6 9.05 3.1C11.55 1.5 14 0.499993 16.4 0.0999926Z" fill="#2655F3"/>
</svg>
