<svg width="64" height="64" viewBox="0 0 64 64" fill="none" xmlns="http://www.w3.org/2000/svg">
<rect width="64" height="64" rx="32" fill="#2655F3"/>
<path d="M20.6666 34.8333C20.3985 34.8342 20.1357 34.759 19.9086 34.6165C19.6816 34.474 19.4996 34.27 19.3839 34.0281C19.2682 33.7863 19.2234 33.5166 19.2549 33.2504C19.2864 32.9841 19.3927 32.7323 19.5616 32.5241L33.5866 18.0741C33.6918 17.9527 33.8352 17.8706 33.9932 17.8414C34.1512 17.8122 34.3144 17.8375 34.4561 17.9133C34.5977 17.9891 34.7094 18.1108 34.7728 18.2584C34.8362 18.4061 34.8476 18.5709 34.8049 18.7258L32.0849 27.2541C32.0047 27.4688 31.9778 27.6997 32.0065 27.927C32.0351 28.1544 32.1185 28.3714 32.2494 28.5595C32.3804 28.7475 32.555 28.901 32.7583 29.0068C32.9615 29.1125 33.1875 29.1674 33.4166 29.1666H43.3333C43.6014 29.1657 43.8642 29.2409 44.0913 29.3834C44.3183 29.5259 44.5003 29.7299 44.616 29.9718C44.7317 30.2136 44.7764 30.4833 44.745 30.7495C44.7135 31.0157 44.6072 31.2676 44.4383 31.4758L30.4133 45.9258C30.3081 46.0472 30.1647 46.1293 30.0067 46.1585C29.8487 46.1877 29.6855 46.1623 29.5438 46.0866C29.4022 46.0108 29.2905 45.8891 29.2271 45.7415C29.1637 45.5938 29.1523 45.429 29.1949 45.2741L31.9149 36.7458C31.9952 36.5311 32.0221 36.3002 31.9934 36.0729C31.9648 35.8455 31.8814 35.6285 31.7505 35.4404C31.6195 35.2524 31.4449 35.0989 31.2416 34.9931C31.0383 34.8874 30.8124 34.8325 30.5833 34.8333H20.6666Z" stroke="white" stroke-width="2.83333" stroke-linecap="round" stroke-linejoin="round"/>
</svg>
